<svg width="32" height="32" viewBox="0 0 32 32" fill="none" xmlns="http://www.w3.org/2000/svg">
<path d="M31.7591 18.7504C33.2782 10.0469 27.454 1.75986 18.7504 0.240854C10.0469 -1.27816 1.75987 4.54604 0.240854 13.2496C-1.27816 21.9531 4.54606 30.2401 13.2496 31.7591C21.9531 33.2782 30.2401 27.4539 31.7591 18.7504Z" fill="url(#paint0_linear_11559_2513)"/>
<path d="M21.1448 20.6352C21.1448 21.7277 21.8808 22.6133 22.7779 22.6133C23.6749 22.6133 24.411 21.7277 24.411 20.6352C24.411 19.5426 23.6749 18.6571 22.7779 18.6571C21.8808 18.6571 21.1448 19.5426 21.1448 20.6352Z" fill="#3C3C3B"/>
<path d="M17.9936 19.8177C17.6601 19.8177 17.384 19.5532 17.3725 19.2197C17.3495 18.8746 17.614 18.5756 17.9706 18.5641C22.4098 18.3226 26.6075 17.529 26.9641 16.862C26.9641 16.517 27.2401 16.2525 27.5851 16.2525C27.9301 16.2525 28.2061 16.563 28.2061 16.908C28.2061 18.8631 22.6743 19.5647 18.0396 19.8177C18.0396 19.8177 18.0166 19.8177 18.0051 19.8177H17.9936Z" fill="#3C3C3B"/>
<path d="M10.5411 20.6352C10.5411 21.7277 9.80509 22.6133 8.90804 22.6133C8.01099 22.6133 7.27496 21.7277 7.27496 20.6352C7.27496 19.5426 8.01099 18.6571 8.90804 18.6571C9.80509 18.6571 10.5411 19.5426 10.5411 20.6352Z" fill="#3C3C3B"/>
<path d="M13.7038 19.8182C13.7038 19.8182 13.6808 19.8182 13.6693 19.8182C9.03453 19.5652 3.50272 18.8637 3.50272 16.9086C3.50272 16.5636 3.77874 16.2761 4.13526 16.2761C4.49177 16.2761 4.76779 16.5521 4.76779 16.9086C5.10131 17.5296 9.31054 18.3232 13.7498 18.5647C14.0948 18.5877 14.3593 18.8752 14.3478 19.2202C14.3248 19.5537 14.0488 19.8182 13.7268 19.8182H13.7038Z" fill="#3C3C3B"/>
<path d="M19.7876 26.9833C19.7876 26.9833 19.6726 26.9833 19.6151 26.9603C15.8774 25.9022 11.9327 26.9603 11.8982 26.9603C11.5647 27.0523 11.2196 26.8568 11.1276 26.5233C11.0356 26.1897 11.2311 25.8447 11.5647 25.7527C11.7372 25.7067 15.8774 24.5912 19.9601 25.7527C20.2936 25.8447 20.4891 26.1897 20.3971 26.5233C20.3166 26.7993 20.0636 26.9833 19.7876 26.9833Z" fill="#3C3C3B"/>
<defs>
<linearGradient id="paint0_linear_11559_2513" x1="0.22375" y1="18.7259" x2="31.7472" y2="13.2242" gradientUnits="userSpaceOnUse">
<stop stop-color="#FDDA74"/>
<stop offset="1" stop-color="#E64850"/>
</linearGradient>
</defs>
</svg>
