<svg width="32" height="32" viewBox="0 0 32 32" fill="none" xmlns="http://www.w3.org/2000/svg">
<path d="M31.7891 18.5742C33.2108 9.85417 27.2944 1.63262 18.5743 0.210903C9.85418 -1.21081 1.63262 4.70568 0.210904 13.4258C-1.21081 22.1458 4.70568 30.3674 13.4258 31.7891C22.1459 33.2108 30.3674 27.2943 31.7891 18.5742Z" fill="#F25268"/>
<path d="M15.9929 25.5167L23.8479 19.1567C24.7105 18.4552 25.412 17.5121 25.757 16.4196C27.1946 11.8998 23.1003 7.05794 18.2355 8.95557C16.9244 9.4731 15.9814 11.1867 15.9814 11.1867C15.9814 11.1867 15.0383 9.4731 13.7272 8.95557C8.87388 7.05794 4.7681 11.8998 6.2057 16.4196C6.56222 17.5236 7.25227 18.4552 8.11483 19.1567L15.9699 25.5167H15.9929Z" fill="white"/>
</svg>
