<svg width="32" height="32" viewBox="0 0 32 32" fill="none" xmlns="http://www.w3.org/2000/svg">
<path d="M31.5325 19.8238C33.6443 11.2454 28.4022 2.5793 19.8238 0.467483C11.2454 -1.64433 2.5793 3.59785 0.467483 12.1762C-1.64433 20.7546 3.59786 29.4207 12.1762 31.5325C20.7546 33.6443 29.4207 28.4021 31.5325 19.8238Z" fill="#4080FF"/>
<path d="M11.2124 13.4889H7.03792V22.8728H11.2124V13.4889Z" fill="white"/>
<path d="M23.5862 14.7193C24.0002 14.4548 24.2762 14.0063 24.2762 13.4773C24.2762 12.6723 23.6207 12.0168 22.8157 12.0168H18.3308C18.3883 11.0853 18.4228 9.59036 18.2618 8.14138C17.9973 5.79542 15.5248 6.8419 15.5248 6.8419C16.8243 9.70535 12.7878 14.7883 12.7878 14.7883V22.3782H21.1482C21.9532 22.3782 22.6087 21.7227 22.6087 20.9177C22.6087 20.5152 22.4477 20.1472 22.1832 19.8827C22.8962 19.7792 23.4482 19.1812 23.4482 18.4337C23.4482 18.0312 23.2872 17.6633 23.0227 17.3988C23.7357 17.2953 24.2877 16.6973 24.2877 15.9498C24.2877 15.4323 24.0117 14.9723 23.5977 14.7078L23.5862 14.7193Z" fill="white"/>
</svg>
