<svg width="32" height="32" viewBox="0 0 32 32" fill="none" xmlns="http://www.w3.org/2000/svg">
<path d="M31.763 18.7284C33.2699 10.0227 27.4341 1.74386 18.7284 0.237002C10.0228 -1.26986 1.74386 4.56593 0.237003 13.2716C-1.26986 21.9773 4.56593 30.2561 13.2716 31.763C21.9773 33.2699 30.2561 27.4341 31.763 18.7284Z" fill="#FDDA74"/>
<path d="M10.2738 14.9408C10.2738 16.2979 9.36528 17.3904 8.24971 17.3904C7.13415 17.3904 6.22561 16.2979 6.22561 14.9408C6.22561 13.5837 7.13415 12.4912 8.24971 12.4912C9.36528 12.4912 10.2738 13.5837 10.2738 14.9408Z" fill="#3C3C3B"/>
<path d="M4.93758 12.7438C4.85707 12.7438 4.77656 12.7322 4.69606 12.6977C4.37404 12.5712 4.22453 12.2032 4.35103 11.8812C4.73055 10.9497 5.4551 10.2251 6.38665 9.83406C7.3182 9.44304 8.34177 9.44304 9.27332 9.83406C9.59534 9.96057 9.74484 10.3286 9.61833 10.6506C9.49182 10.9726 9.12381 11.1221 8.80179 10.9956C8.18076 10.7426 7.49072 10.7426 6.88119 10.9956C6.26015 11.2601 5.77712 11.7432 5.5241 12.3642C5.4206 12.6057 5.19058 12.7552 4.94907 12.7552L4.93758 12.7438Z" fill="#3C3C3B"/>
<path d="M23.718 17.3904C24.8359 17.3904 25.7422 16.2937 25.7422 14.9408C25.7422 13.5879 24.8359 12.4912 23.718 12.4912C22.6002 12.4912 21.6939 13.5879 21.6939 14.9408C21.6939 16.2937 22.6002 17.3904 23.718 17.3904Z" fill="#3C3C3B"/>
<path d="M27.0302 12.7444C26.7887 12.7444 26.5472 12.5948 26.4552 12.3533C26.2022 11.7323 25.7192 11.2492 25.0981 10.9847C24.4771 10.7317 23.7986 10.7202 23.1775 10.9847C22.8555 11.1112 22.4875 10.9617 22.361 10.6397C22.223 10.3177 22.384 9.94969 22.706 9.82319C23.6375 9.44367 24.6611 9.44367 25.5926 9.82319C26.5242 10.2142 27.2487 10.9387 27.6283 11.8703C27.7663 12.1923 27.6053 12.5603 27.2832 12.6868C27.2027 12.7213 27.1222 12.7328 27.0417 12.7328L27.0302 12.7444Z" fill="#3C3C3B"/>
<path d="M20.6704 24.647C20.4749 24.647 20.2909 24.555 20.1644 24.394C19.0718 22.8989 17.3928 22.0479 15.5527 22.0479C13.7125 22.0479 12.0335 22.8989 10.9409 24.394C10.7339 24.67 10.3429 24.7391 10.0668 24.532C9.79082 24.325 9.72182 23.934 9.92884 23.658C11.2399 21.8639 13.3445 20.7943 15.5527 20.7943C17.7608 20.7943 19.8654 21.8639 21.1765 23.658C21.3835 23.934 21.326 24.3365 21.0385 24.532C20.9235 24.6126 20.7969 24.6585 20.6704 24.6585V24.647Z" fill="#3C3C3B"/>
<path d="M26.3632 31.5243C24.2241 31.5243 22.7635 29.3622 23.557 27.3841L26.3632 20.3687L29.1693 27.3841C29.9629 29.3737 28.5023 31.5243 26.3632 31.5243Z" fill="#4F90FC"/>
</svg>
