<svg width="32" height="32" viewBox="0 0 32 32" fill="none" xmlns="http://www.w3.org/2000/svg">
<path d="M31.8029 18.4888C33.1774 9.7611 27.2165 1.57163 18.4888 0.197102C9.76111 -1.17742 1.57163 4.7835 0.197102 13.5112C-1.17742 22.2389 4.78351 30.4284 13.5112 31.8029C22.2389 33.1774 30.4284 27.2165 31.8029 18.4888Z" fill="#FDDA74"/>
<path d="M15.9976 29.017C18.2842 29.017 20.1379 26.2159 20.1379 22.7606C20.1379 19.3052 18.2842 16.5041 15.9976 16.5041C13.711 16.5041 11.8573 19.3052 11.8573 22.7606C11.8573 26.2159 13.711 29.017 15.9976 29.017Z" fill="#3C3C3B"/>
<path d="M8.49905 15.285C9.61696 15.285 10.5232 13.9154 10.5232 12.2258C10.5232 10.5362 9.61696 9.16656 8.49905 9.16656C7.38114 9.16656 6.4749 10.5362 6.4749 12.2258C6.4749 13.9154 7.38114 15.285 8.49905 15.285Z" fill="#3C3C3B"/>
<path d="M23.4961 15.285C24.6141 15.285 25.5203 13.9154 25.5203 12.2258C25.5203 10.5362 24.6141 9.16656 23.4961 9.16656C22.3782 9.16656 21.472 10.5362 21.472 12.2258C21.472 13.9154 22.3782 15.285 23.4961 15.285Z" fill="#3C3C3B"/>
<path d="M11.0522 6.06125C10.8912 6.06125 10.7302 6.00374 10.6037 5.87723C9.64911 4.92266 7.99298 4.92266 7.04991 5.87723C6.80839 6.11875 6.40587 6.11875 6.16435 5.87723C5.92283 5.63571 5.92283 5.23319 6.16435 4.99168C6.8774 4.27862 7.82047 3.88757 8.83255 3.88757C9.84462 3.88757 10.7877 4.27862 11.5007 4.99168C11.7423 5.23319 11.7423 5.63571 11.5007 5.87723C11.3742 6.00374 11.2132 6.06125 11.0522 6.06125Z" fill="#3C3C3B"/>
<path d="M25.1638 6.06125C25.0027 6.06125 24.8417 6.00374 24.7152 5.87723C23.7606 4.92266 22.1045 4.92266 21.1615 5.87723C20.9199 6.11875 20.5174 6.11875 20.2759 5.87723C20.0344 5.63571 20.0344 5.23319 20.2759 4.99168C20.9889 4.27862 21.932 3.88757 22.9441 3.88757C23.9562 3.88757 24.8992 4.27862 25.6123 4.99168C25.8538 5.23319 25.8538 5.63571 25.6123 5.87723C25.4858 6.00374 25.3248 6.06125 25.1638 6.06125Z" fill="#3C3C3B"/>
</svg>
