<svg width="122" height="44" viewBox="0 0 122 44" fill="none" xmlns="http://www.w3.org/2000/svg">
<mask id="mask0_11756_1775" style="mask-type:alpha" maskUnits="userSpaceOnUse" x="6" y="8" width="36" height="36">
<circle cx="24.4569" cy="25.6915" r="17.5079" fill="#1B5E20"/>
</mask>
<g mask="url(#mask0_11756_1775)">
<circle cx="23.3277" cy="50.5392" r="17.5079" fill="#1B5E20"/>
</g>
<path d="M15.4205 17.7022H12.5967C12.5967 23.0042 17.0222 27.3033 22.4802 27.3033V33.4755C22.4802 33.8526 22.7979 34.1612 23.1861 34.1612H24.5981C24.9864 34.1612 25.304 33.8526 25.304 33.4755V27.3033C25.304 22.0012 20.8785 17.7022 15.4205 17.7022ZM32.3637 14.959C28.6486 14.959 25.4188 16.9521 23.7289 19.8967C24.9511 21.1911 25.8556 22.7642 26.3321 24.5087C31.3048 24.0072 35.1876 19.9267 35.1876 14.959H32.3637Z" fill="#1B5E20"/>
<path d="M40.2941 34.5133C42.8406 31.537 44.4943 27.9017 45.0646 24.0264C45.6349 20.151 45.0986 16.1934 43.5175 12.6097C41.9364 9.0259 39.3748 5.96183 36.128 3.77058C32.8812 1.57933 29.0813 0.350105 25.1662 0.224559C21.2512 0.0990142 17.3803 1.08226 13.9998 3.06099C10.6192 5.03971 7.86662 7.93337 6.05914 11.4085C4.25165 14.8836 3.46288 18.7987 3.78373 22.7026C4.10458 26.6065 5.52198 30.3403 7.87259 33.4737L11.0038 31.1247C9.09581 28.5814 7.94532 25.5507 7.68489 22.382C7.42447 19.2132 8.0647 16.0354 9.53181 13.2147C10.9989 10.394 13.2332 8.04526 15.9771 6.43915C18.7211 4.83305 21.863 4.03496 25.0408 4.13686C28.2185 4.23877 31.3029 5.23652 33.9383 7.01512C36.5737 8.79372 38.6529 11.2808 39.9362 14.1897C41.2196 17.0986 41.6549 20.3109 41.192 23.4565C40.7291 26.602 39.3868 29.5527 37.3198 31.9686L40.2941 34.5133Z" fill="#1B5E20"/>
<path d="M55.575 8.55796C55.9894 8.55796 56.3407 8.50671 56.629 8.40419C56.9233 8.29564 57.1635 8.1479 57.3497 7.96096C57.5358 7.77402 57.671 7.55693 57.755 7.30969C57.8391 7.05642 57.8812 6.78505 57.8812 6.4956C57.8812 5.91669 57.692 5.46441 57.3136 5.13878C56.9413 4.81314 56.3618 4.65032 55.575 4.65032H54.3499V8.55796H55.575ZM62.043 15.5411H59.2864C58.776 15.5411 58.4096 15.3481 58.1874 14.9622L56.0074 11.1359C55.9053 10.9731 55.7912 10.8555 55.6651 10.7831C55.539 10.7048 55.3588 10.6656 55.1246 10.6656H54.3499V15.5411H51.3051V2.36182H55.575C56.5239 2.36182 57.3317 2.46132 57.9983 2.66032C58.6709 2.85329 59.2174 3.12465 59.6378 3.47441C60.0642 3.82417 60.3734 4.23725 60.5656 4.71364C60.7578 5.19003 60.8539 5.70864 60.8539 6.26946C60.8539 6.69761 60.7968 7.10164 60.6827 7.48155C60.5686 7.86146 60.4005 8.21423 60.1783 8.53987C59.9561 8.85948 59.6798 9.14592 59.3495 9.39919C59.0252 9.65246 58.6499 9.86051 58.2235 10.0233C58.4217 10.1258 58.6078 10.2555 58.782 10.4123C58.9561 10.563 59.1123 10.7439 59.2504 10.955L62.043 15.5411Z" fill="#1B5E20"/>
<path d="M68.0163 9.72483C68.0163 9.50171 67.9863 9.28462 67.9262 9.07355C67.8722 8.86249 67.7791 8.67555 67.647 8.51274C67.5209 8.34389 67.3527 8.2082 67.1425 8.10569C66.9323 8.00317 66.6771 7.95192 66.3768 7.95192C65.8483 7.95192 65.4339 8.10569 65.1337 8.41324C64.8334 8.71475 64.6352 9.15195 64.5391 9.72483H68.0163ZM64.5031 11.353C64.5932 12.137 64.8304 12.7068 65.2147 13.0626C65.5991 13.4124 66.0945 13.5872 66.7011 13.5872C67.0254 13.5872 67.3047 13.548 67.5389 13.4697C67.7731 13.3913 67.9803 13.3038 68.1604 13.2073C68.3466 13.1108 68.5148 13.0234 68.6649 12.945C68.8211 12.8666 68.9832 12.8274 69.1514 12.8274C69.3736 12.8274 69.5417 12.9088 69.6558 13.0717L70.4666 14.0757C70.1783 14.4074 69.866 14.6787 69.5297 14.8898C69.1994 15.0948 68.8571 15.2576 68.5028 15.3782C68.1544 15.4928 67.8031 15.5712 67.4488 15.6134C67.1005 15.6617 66.7672 15.6858 66.4489 15.6858C65.7943 15.6858 65.1787 15.5803 64.6022 15.3692C64.0317 15.1521 63.5302 14.8325 63.0978 14.4104C62.6714 13.9883 62.3321 13.4636 62.0799 12.8365C61.8336 12.2093 61.7105 11.4796 61.7105 10.6475C61.7105 10.0203 61.8156 9.42633 62.0258 8.86551C62.242 8.30469 62.5483 7.81322 62.9447 7.3911C63.347 6.96898 63.8305 6.63429 64.395 6.38705C64.9655 6.13981 65.6081 6.01619 66.3228 6.01619C66.9413 6.01619 67.5058 6.11267 68.0163 6.30564C68.5328 6.49861 68.9742 6.77902 69.3405 7.14687C69.7129 7.51472 70.0011 7.96699 70.2053 8.50369C70.4155 9.03436 70.5206 9.63739 70.5206 10.3128C70.5206 10.5238 70.5116 10.6957 70.4936 10.8284C70.4756 10.961 70.4425 11.0666 70.3945 11.145C70.3465 11.2234 70.2804 11.2776 70.1963 11.3078C70.1182 11.3379 70.0161 11.353 69.89 11.353H64.5031Z" fill="#1B5E20"/>
<path d="M75.4763 10.358C75.9387 10.358 76.272 10.2434 76.4762 10.0143C76.6864 9.7791 76.7915 9.47759 76.7915 9.10974C76.7915 8.72983 76.6864 8.43133 76.4762 8.21423C76.272 7.99714 75.9387 7.8886 75.4763 7.8886C75.0139 7.8886 74.6776 7.99714 74.4674 8.21423C74.2632 8.43133 74.1611 8.72983 74.1611 9.10974C74.1611 9.29065 74.1851 9.45648 74.2331 9.60724C74.2872 9.75799 74.3683 9.89066 74.4764 10.0052C74.5845 10.1138 74.7196 10.2012 74.8817 10.2676C75.0499 10.3279 75.2481 10.358 75.4763 10.358ZM77.6383 15.8848C77.6383 15.6617 77.5392 15.5019 77.341 15.4054C77.1428 15.3029 76.8846 15.2305 76.5663 15.1883C76.248 15.1461 75.8907 15.122 75.4943 15.1159C75.1039 15.1039 74.7136 15.0797 74.3232 15.0436C74.1491 15.1642 74.0049 15.2998 73.8908 15.4506C73.7827 15.5953 73.7287 15.7612 73.7287 15.9481C73.7287 16.0808 73.7557 16.2014 73.8098 16.3099C73.8698 16.4185 73.9719 16.5119 74.116 16.5903C74.2602 16.6687 74.4524 16.729 74.6926 16.7712C74.9388 16.8195 75.2481 16.8436 75.6204 16.8436C76.0228 16.8436 76.3531 16.8195 76.6113 16.7712C76.8696 16.723 77.0738 16.6567 77.2239 16.5722C77.38 16.4878 77.4881 16.3853 77.5482 16.2647C77.6082 16.1501 77.6383 16.0235 77.6383 15.8848ZM80.3948 6.45037V7.47251C80.3948 7.62929 80.3498 7.75292 80.2597 7.84337C80.1756 7.93383 80.0285 8.00317 79.8183 8.05142L79.1427 8.20519C79.1787 8.33786 79.2057 8.47354 79.2237 8.61224C79.2478 8.75093 79.2598 8.89566 79.2598 9.04642C79.2598 9.51678 79.1607 9.9389 78.9625 10.3128C78.7703 10.6867 78.5031 11.0063 78.1608 11.2716C77.8244 11.5309 77.4251 11.7329 76.9627 11.8776C76.5002 12.0163 76.0048 12.0857 75.4763 12.0857C75.3322 12.0857 75.191 12.0827 75.0529 12.0766C74.9148 12.0646 74.7796 12.0465 74.6475 12.0224C74.4433 12.149 74.3412 12.2907 74.3412 12.4475C74.3412 12.6043 74.4253 12.7189 74.5935 12.7912C74.7616 12.8576 74.9838 12.9058 75.2601 12.936C75.5363 12.9601 75.8486 12.9782 76.197 12.9902C76.5513 12.9963 76.9116 13.0174 77.2779 13.0536C77.6443 13.0837 78.0016 13.138 78.3499 13.2164C78.7043 13.2948 79.0195 13.4214 79.2958 13.5963C79.5721 13.7712 79.7943 14.0063 79.9624 14.3018C80.1306 14.5913 80.2146 14.9622 80.2146 15.4144C80.2146 15.8365 80.1126 16.2496 79.9084 16.6537C79.7042 17.0577 79.4039 17.4165 79.0075 17.7301C78.6112 18.0436 78.1247 18.2939 77.5482 18.4808C76.9717 18.6738 76.3111 18.7703 75.5664 18.7703C74.8337 18.7703 74.2001 18.7009 73.6656 18.5622C73.1371 18.4235 72.6957 18.2396 72.3414 18.0105C71.9931 17.7874 71.7349 17.5281 71.5667 17.2326C71.3985 16.9371 71.3145 16.6295 71.3145 16.3099C71.3145 15.8938 71.4346 15.5471 71.6748 15.2697C71.915 14.9923 72.2513 14.7692 72.6837 14.6003C72.4555 14.4616 72.2753 14.2837 72.1432 14.0667C72.0111 13.8496 71.945 13.5692 71.945 13.2254C71.945 13.0867 71.9691 12.942 72.0171 12.7912C72.0652 12.6345 72.1402 12.4837 72.2423 12.339C72.3504 12.1882 72.4825 12.0465 72.6387 11.9138C72.7948 11.7812 72.981 11.6636 73.1972 11.5611C72.7107 11.3018 72.3264 10.961 72.0441 10.5389C71.7619 10.1108 71.6207 9.61327 71.6207 9.04642C71.6207 8.57605 71.7198 8.15393 71.918 7.78005C72.1162 7.40014 72.3864 7.08054 72.7288 6.82123C73.0771 6.5559 73.4855 6.35388 73.9539 6.21519C74.4223 6.07046 74.9298 5.9981 75.4763 5.9981C76.269 5.9981 76.9717 6.14885 77.5842 6.45037H80.3948Z" fill="#1B5E20"/>
<path d="M89.9374 6.16091V15.5411H88.2078C87.8595 15.5411 87.6313 15.3843 87.5232 15.0707L87.361 14.528C87.1809 14.7028 86.9947 14.8627 86.8025 15.0074C86.6103 15.1461 86.4031 15.2667 86.1809 15.3692C85.9647 15.4657 85.7275 15.5411 85.4693 15.5953C85.2171 15.6556 84.9408 15.6858 84.6405 15.6858C84.1301 15.6858 83.6766 15.5983 83.2803 15.4235C82.8899 15.2426 82.5596 14.9923 82.2894 14.6727C82.0191 14.3531 81.8149 13.9762 81.6768 13.542C81.5387 13.1078 81.4696 12.6314 81.4696 12.1128V6.16091H84.2622V12.1128C84.2622 12.5772 84.3673 12.936 84.5775 13.1892C84.7877 13.4425 85.0969 13.5691 85.5053 13.5691C85.8116 13.5691 86.0969 13.5058 86.3611 13.3792C86.6314 13.2465 86.8926 13.0686 87.1448 12.8455V6.16091H89.9374Z" fill="#1B5E20"/>
<path d="M94.6273 2V15.5411H91.8348V2H94.6273Z" fill="#1B5E20"/>
<path d="M101.334 11.7239C100.776 11.748 100.316 11.7962 99.956 11.8686C99.5957 11.941 99.3104 12.0314 99.1002 12.14C98.89 12.2485 98.7429 12.3721 98.6588 12.5108C98.5807 12.6495 98.5417 12.8003 98.5417 12.9631C98.5417 13.2827 98.6288 13.5088 98.8029 13.6415C98.9771 13.7682 99.2323 13.8315 99.5686 13.8315C99.929 13.8315 100.244 13.7682 100.515 13.6415C100.785 13.5149 101.058 13.3098 101.334 13.0264V11.7239ZM96.3076 7.46346C96.8722 6.96295 97.4967 6.59208 98.1814 6.35087C98.872 6.10363 99.6107 5.98001 100.397 5.98001C100.962 5.98001 101.469 6.07348 101.92 6.26042C102.376 6.44132 102.761 6.69761 103.073 7.02928C103.391 7.35492 103.634 7.74387 103.803 8.19614C103.971 8.64842 104.055 9.1429 104.055 9.6796V15.5411H102.776C102.511 15.5411 102.31 15.5049 102.172 15.4325C102.04 15.3602 101.929 15.2094 101.839 14.9802L101.641 14.4647C101.406 14.6637 101.181 14.8385 100.965 14.9893C100.749 15.14 100.524 15.2697 100.289 15.3782C100.061 15.4808 99.8149 15.5561 99.5506 15.6044C99.2924 15.6587 99.0041 15.6858 98.6858 15.6858C98.2594 15.6858 97.8721 15.6315 97.5238 15.523C97.1754 15.4084 96.8782 15.2426 96.6319 15.0255C96.3917 14.8084 96.2056 14.54 96.0734 14.2204C95.9413 13.8948 95.8753 13.5209 95.8753 13.0988C95.8753 12.7611 95.9593 12.4204 96.1275 12.0766C96.2956 11.7269 96.5869 11.4103 97.0013 11.1269C97.4157 10.8374 97.9742 10.5962 98.6768 10.4032C99.3795 10.2103 100.265 10.1017 101.334 10.0776V9.6796C101.334 9.13084 101.22 8.73586 100.992 8.49464C100.77 8.2474 100.451 8.12378 100.037 8.12378C99.7068 8.12378 99.4365 8.15996 99.2263 8.23233C99.0161 8.30469 98.827 8.3861 98.6588 8.47655C98.4967 8.56701 98.3375 8.64842 98.1814 8.72078C98.0252 8.79315 97.8391 8.82933 97.6229 8.82933C97.4307 8.82933 97.2685 8.78108 97.1364 8.6846C97.0043 8.58811 96.8962 8.47354 96.8121 8.34087L96.3076 7.46346Z" fill="#1B5E20"/>
<path d="M53.7869 31.9111C53.4979 32.1538 53.2929 32.415 53.1721 32.6947C53.0512 32.969 52.9908 33.2619 52.9908 33.5732C52.9908 33.8265 53.0276 34.056 53.1011 34.2618C53.18 34.4676 53.2903 34.6443 53.4322 34.7921C53.5741 34.9398 53.7422 35.0559 53.9367 35.1403C54.1363 35.2195 54.357 35.259 54.5988 35.259C54.9508 35.259 55.2793 35.2142 55.584 35.1245C55.8888 35.0295 56.1726 34.8976 56.4353 34.7288L53.7869 31.9111ZM61.6455 37.024H59.2335C59.1127 37.024 59.0049 37.0188 58.9104 37.0082C58.8158 36.9924 58.7264 36.9686 58.6424 36.937C58.5635 36.9053 58.4873 36.8605 58.4138 36.8024C58.3402 36.7444 58.2614 36.6705 58.1773 36.5808L57.6807 36.0584C57.1815 36.4067 56.635 36.6758 56.0412 36.8657C55.4527 37.0557 54.8247 37.1507 54.1574 37.1507C53.7002 37.1507 53.2509 37.0715 52.8095 36.9132C52.3733 36.7549 51.9845 36.5307 51.6429 36.2405C51.3014 35.945 51.0255 35.5888 50.8153 35.172C50.6051 34.7551 50.5 34.2882 50.5 33.7711C50.5 33.4228 50.5525 33.093 50.6576 32.7817C50.768 32.4704 50.9204 32.1828 51.1148 31.919C51.3145 31.6499 51.5483 31.4072 51.8163 31.1908C52.0843 30.9692 52.3812 30.7766 52.707 30.6131C52.4548 30.2279 52.2735 29.8506 52.1632 29.4813C52.0528 29.1119 51.9976 28.7531 51.9976 28.4048C51.9976 27.9933 52.0712 27.6055 52.2183 27.2414C52.3707 26.872 52.5888 26.5501 52.8726 26.2758C53.1616 25.9961 53.5136 25.7745 53.9288 25.6109C54.3492 25.4474 54.83 25.3656 55.3712 25.3656C55.8809 25.3656 56.3302 25.4421 56.7191 25.5951C57.1079 25.7428 57.4364 25.9407 57.7044 26.1887C57.9724 26.4314 58.1826 26.7137 58.3349 27.0356C58.4873 27.3575 58.5819 27.6872 58.6187 28.0249L57.0423 28.3415C56.7638 28.4048 56.5588 28.294 56.4274 28.0091C56.3066 27.7347 56.1647 27.5263 56.0018 27.3838C55.8442 27.2414 55.634 27.1701 55.3712 27.1701C55.1873 27.1701 55.027 27.2044 54.8904 27.273C54.7538 27.3416 54.6382 27.4313 54.5436 27.5421C54.4543 27.6529 54.3859 27.7822 54.3387 27.93C54.2914 28.0777 54.2677 28.2307 54.2677 28.389C54.2677 28.5262 54.2782 28.6581 54.2992 28.7848C54.3255 28.9061 54.3676 29.0328 54.4254 29.1647C54.4832 29.2913 54.5594 29.4232 54.6539 29.5604C54.7538 29.6976 54.8773 29.848 55.0244 30.0115L57.862 33.0112C58.0039 32.6999 58.1195 32.3728 58.2088 32.0298C58.2982 31.6816 58.356 31.3254 58.3822 30.9613C58.398 30.8136 58.4479 30.6975 58.532 30.6131C58.6161 30.5286 58.7291 30.4864 58.8709 30.4864H60.4159C60.4159 31.2515 60.3134 31.9691 60.1085 32.6393C59.9035 33.3094 59.6145 33.9214 59.2414 34.4755L61.6455 37.024Z" fill="#1B5E20"/>
<path d="M74.7897 33.6139C74.8618 33.6139 74.9338 33.629 75.0059 33.6591C75.078 33.6832 75.147 33.7285 75.2131 33.7948L76.4202 35.0702C75.8917 35.7637 75.2281 36.2883 74.4294 36.6441C73.6366 36.9939 72.6968 37.1688 71.6098 37.1688C70.6129 37.1688 69.718 36.9999 68.9253 36.6622C68.1386 36.3185 67.469 35.8481 66.9165 35.2511C66.37 34.6481 65.9496 33.9365 65.6553 33.1164C65.361 32.2902 65.2139 31.3947 65.2139 30.4299C65.2139 29.447 65.373 28.5454 65.6913 27.7253C66.0096 26.8992 66.457 26.1876 67.0336 25.5906C67.6101 24.9936 68.3007 24.5292 69.1055 24.1976C69.9102 23.8659 70.796 23.7001 71.7629 23.7001C72.2554 23.7001 72.7178 23.7453 73.1502 23.8358C73.5886 23.9202 73.997 24.0408 74.3753 24.1976C74.7537 24.3483 75.102 24.5323 75.4203 24.7493C75.7386 24.9664 76.0208 25.2016 76.267 25.4549L75.2401 26.8388C75.174 26.9233 75.096 27.0017 75.0059 27.074C74.9158 27.1404 74.7897 27.1735 74.6275 27.1735C74.5194 27.1735 74.4173 27.1494 74.3213 27.1012C74.2252 27.0529 74.1231 26.9956 74.015 26.9293C73.9069 26.8569 73.7868 26.7816 73.6546 26.7032C73.5285 26.6187 73.3754 26.5434 73.1952 26.477C73.0211 26.4047 72.8139 26.3444 72.5737 26.2961C72.3394 26.2479 72.0632 26.2238 71.7449 26.2238C71.2404 26.2238 70.778 26.3172 70.3576 26.5042C69.9432 26.6911 69.5829 26.9655 69.2766 27.3273C68.9764 27.6831 68.7421 28.1233 68.574 28.6479C68.4118 29.1665 68.3308 29.7605 68.3308 30.4299C68.3308 31.1053 68.4208 31.7053 68.601 32.2299C68.7872 32.7546 69.0364 33.1978 69.3487 33.5596C69.667 33.9154 70.0363 34.1868 70.4567 34.3737C70.8771 34.5607 71.3275 34.6541 71.808 34.6541C72.0842 34.6541 72.3364 34.6421 72.5646 34.618C72.7929 34.5878 73.0061 34.5426 73.2042 34.4823C73.4024 34.4159 73.5886 34.3315 73.7627 34.229C73.9369 34.1204 74.1141 33.9848 74.2942 33.8219C74.3663 33.7616 74.4444 33.7134 74.5285 33.6772C74.6125 33.635 74.6996 33.6139 74.7897 33.6139Z" fill="#1B5E20"/>
<path d="M82.2445 33.2069C81.6859 33.231 81.2265 33.2792 80.8662 33.3516C80.5059 33.4239 80.2206 33.5144 80.0104 33.6229C79.8002 33.7315 79.6531 33.8551 79.569 33.9938C79.4909 34.1325 79.4519 34.2833 79.4519 34.4461C79.4519 34.7657 79.539 34.9918 79.7131 35.1245C79.8873 35.2511 80.1425 35.3144 80.4788 35.3144C80.8392 35.3144 81.1545 35.2511 81.4247 35.1245C81.695 34.9979 81.9682 34.7928 82.2445 34.5094V33.2069ZM77.2178 28.9464C77.7824 28.4459 78.4069 28.0751 79.0916 27.8338C79.7822 27.5866 80.5209 27.463 81.3076 27.463C81.8721 27.463 82.3796 27.5565 82.83 27.7434C83.2864 27.9243 83.6708 28.1806 83.9831 28.5123C84.3014 28.8379 84.5446 29.2268 84.7127 29.6791C84.8809 30.1314 84.965 30.6259 84.965 31.1626V37.024H83.6858C83.4215 37.024 83.2204 36.9879 83.0822 36.9155C82.9501 36.8431 82.839 36.6924 82.7489 36.4632L82.5507 35.9476C82.3165 36.1466 82.0913 36.3215 81.8751 36.4723C81.6589 36.623 81.4337 36.7527 81.1995 36.8612C80.9713 36.9637 80.7251 37.0391 80.4608 37.0874C80.2026 37.1416 79.9143 37.1688 79.596 37.1688C79.1696 37.1688 78.7823 37.1145 78.434 37.006C78.0856 36.8914 77.7884 36.7255 77.5421 36.5084C77.3019 36.2914 77.1157 36.023 76.9836 35.7034C76.8515 35.3778 76.7854 35.0039 76.7854 34.5818C76.7854 34.2441 76.8695 33.9034 77.0377 33.5596C77.2058 33.2099 77.4971 32.8933 77.9115 32.6099C78.3259 32.3204 78.8844 32.0792 79.587 31.8862C80.2897 31.6932 81.1755 31.5847 82.2445 31.5606V31.1626C82.2445 30.6138 82.1304 30.2188 81.9021 29.9776C81.6799 29.7304 81.3616 29.6068 80.9473 29.6068C80.617 29.6068 80.3467 29.6429 80.1365 29.7153C79.9263 29.7877 79.7372 29.8691 79.569 29.9595C79.4069 30.05 79.2477 30.1314 79.0916 30.2038C78.9354 30.2761 78.7492 30.3123 78.5331 30.3123C78.3409 30.3123 78.1787 30.2641 78.0466 30.1676C77.9145 30.0711 77.8064 29.9565 77.7223 29.8239L77.2178 28.9464Z" fill="#1B5E20"/>
<path d="M86.75 37.024V27.6439H88.4796C88.8279 27.6439 89.0561 27.8007 89.1642 28.1143L89.3174 28.6208C89.4735 28.458 89.6357 28.3102 89.8038 28.1776C89.972 28.0389 90.1521 27.9213 90.3443 27.8248C90.5425 27.7223 90.7527 27.6439 90.9749 27.5896C91.2031 27.5293 91.4523 27.4992 91.7226 27.4992C92.2871 27.4992 92.7525 27.6469 93.1189 27.9424C93.4912 28.2318 93.7735 28.6208 93.9656 29.1093C94.1218 28.8198 94.311 28.5726 94.5332 28.3675C94.7614 28.1625 95.0046 27.9967 95.2628 27.87C95.5271 27.7434 95.8033 27.6499 96.0916 27.5896C96.3859 27.5293 96.6771 27.4992 96.9654 27.4992C97.4999 27.4992 97.9743 27.5806 98.3887 27.7434C98.8031 27.9002 99.1484 28.1323 99.4247 28.4399C99.7069 28.7414 99.9201 29.1153 100.064 29.5615C100.208 30.0017 100.28 30.5023 100.28 31.0631V37.024H97.4879V31.0631C97.4879 30.0922 97.0735 29.6068 96.2447 29.6068C95.8664 29.6068 95.5511 29.7334 95.2989 29.9867C95.0526 30.2339 94.9295 30.5927 94.9295 31.0631V37.024H92.137V31.0631C92.137 30.5264 92.0319 30.1495 91.8217 29.9324C91.6115 29.7153 91.3022 29.6068 90.8938 29.6068C90.6416 29.6068 90.4014 29.664 90.1731 29.7786C89.9509 29.8932 89.7408 30.047 89.5426 30.2399V37.024H86.75Z" fill="#1B5E20"/>
<path d="M104.867 34.4732C105.077 34.7024 105.306 34.8652 105.552 34.9617C105.798 35.0582 106.056 35.1064 106.327 35.1064C106.585 35.1064 106.822 35.0551 107.038 34.9526C107.254 34.8501 107.441 34.6873 107.597 34.4642C107.759 34.235 107.885 33.9395 107.975 33.5777C108.065 33.2159 108.11 32.7757 108.11 32.2571C108.11 31.7626 108.074 31.3465 108.002 31.0088C107.93 30.6711 107.828 30.3997 107.696 30.1947C107.57 29.9837 107.417 29.8329 107.236 29.7424C107.056 29.652 106.855 29.6068 106.633 29.6068C106.224 29.6068 105.888 29.6821 105.624 29.8329C105.36 29.9837 105.107 30.2038 104.867 30.4932V34.4732ZM104.696 28.8017C105.062 28.4097 105.477 28.0901 105.939 27.8429C106.408 27.5896 106.963 27.463 107.606 27.463C108.092 27.463 108.543 27.5715 108.957 27.7886C109.371 28.0057 109.729 28.3193 110.029 28.7293C110.329 29.1394 110.563 29.6429 110.732 30.2399C110.906 30.8309 110.993 31.5033 110.993 32.2571C110.993 32.9626 110.894 33.6139 110.696 34.2109C110.503 34.8079 110.23 35.3265 109.876 35.7667C109.527 36.2069 109.107 36.5507 108.615 36.7979C108.128 37.0451 107.588 37.1688 106.993 37.1688C106.507 37.1688 106.098 37.0994 105.768 36.9607C105.438 36.822 105.137 36.6351 104.867 36.3999V40H102.075V27.6439H103.804C104.153 27.6439 104.381 27.8007 104.489 28.1143L104.696 28.8017Z" fill="#1B5E20"/>
<path d="M116.744 27.4992C117.452 27.4992 118.098 27.6107 118.68 27.8338C119.263 28.057 119.761 28.3766 120.176 28.7927C120.596 29.2088 120.92 29.7153 121.149 30.3123C121.383 30.9033 121.5 31.5696 121.5 32.3114C121.5 33.0591 121.383 33.7345 121.149 34.3375C120.92 34.9345 120.596 35.4441 120.176 35.8662C119.761 36.2823 119.263 36.6049 118.68 36.8341C118.098 37.0572 117.452 37.1688 116.744 37.1688C116.029 37.1688 115.377 37.0572 114.789 36.8341C114.206 36.6049 113.702 36.2823 113.275 35.8662C112.855 35.4441 112.528 34.9345 112.294 34.3375C112.065 33.7345 111.951 33.0591 111.951 32.3114C111.951 31.5696 112.065 30.9033 112.294 30.3123C112.528 29.7153 112.855 29.2088 113.275 28.7927C113.702 28.3766 114.206 28.057 114.789 27.8338C115.377 27.6107 116.029 27.4992 116.744 27.4992ZM116.744 35.0883C117.386 35.0883 117.858 34.8622 118.158 34.4099C118.464 33.9516 118.617 33.2581 118.617 32.3294C118.617 31.4008 118.464 30.7103 118.158 30.258C117.858 29.8058 117.386 29.5796 116.744 29.5796C116.083 29.5796 115.6 29.8058 115.293 30.258C114.987 30.7103 114.834 31.4008 114.834 32.3294C114.834 33.2581 114.987 33.9516 115.293 34.4099C115.6 34.8622 116.083 35.0883 116.744 35.0883Z" fill="#1B5E20"/>
</svg>
